<svg id="Layer_1" xmlns="http://www.w3.org/2000/svg" viewBox="0 0 500 150"><style>.st0{fill:#fff}.st1{fill:#ed2024}</style><g id="XMLID_2_"><path id="XMLID_66_" class="st0" d="M.7 114.8C8 108.4 15.1 102.2 22.1 96c.7-.6 1.5-.7 2.3-.7H72c6.2 0 12.2-4.4 14.1-10.1 2.1-6.4-1-12.6-6.6-15.8-2.5-1.4-5.1-2-8-2-23.1 0-46.2 0-69.3.1-1.4 0-1.7-.3-1.7-1.7.1-5.2.1-10.5 0-15.7 0-1.3.3-1.7 1.6-1.7h68.3c3.8 0 7.3-.9 10.4-3.2 8.4-6.1 7.7-18-1.5-23-2.4-1.3-5-2-7.8-2H21.8c-2.2 0-2.2 0-2.2 2.1v15.2c0 1.1-.2 1.6-1.5 1.6-5.5-.1-10.9-.1-16.4 0-1.1 0-1.3-.3-1.3-1.3V2.2C.4 1.2.6.8 1.7.8c23.5 0 47-.1 70.6.1 11.4.1 21.3 4.3 29.1 12.8 11.5 12.6 10.8 30.9-1.5 42.8-1.1 1-1.3 1.4-.1 2.6 14.4 13.8 12.6 35.8-3.8 47.7-7.2 5.2-15.2 7.9-24.1 7.9H2.5c-.5.1-1 .1-1.8.1z"/><path id="XMLID_65_" class="st0" d="M251.1 114.8c7.3-6.3 14.2-12.4 21.2-18.5.6-.6 1.3-.6 2.1-.6h45.9c3.6 0 7.3 0 10.6-1.7 4.9-2.5 8.2-6.2 8.4-11.9.3-5.7-3.3-10.7-8.9-13.1-2.4-1-4.9-1.5-7.5-1.5-11.8 0-23.6.2-35.4 0-12.2-.3-22.6-5-30.2-14.7-9.8-12.6-8.3-29.5 3.4-40.8 7.7-7.4 17.2-10.8 27.8-11 12.2-.2 24.5-.5 36.7 0 14.7.6 26.3 7.1 33.2 20.6 1.8 3.5 2.7 7.4 2.7 11.4 0 .9-.3 1.2-1.2 1.2h-19.6c-.6 0-1.1.1-1.2-.9-.5-7.6-7.6-13-14.6-13.1-12.1-.2-24.3 0-36.4 0-3.2 0-6.1.9-8.8 2.7-9.2 5.9-8.8 17.8.7 23.2 2.8 1.6 5.7 2.3 8.9 2.3 11.9 0 23.8-.2 35.8.1 12.1.3 22.4 5 29.9 14.6 9.8 12.4 8.4 29.4-3.1 40.7-7.4 7.2-16.4 11-26.7 11-24.2.1-48.3 0-72.5 0h-1.2z"/><path id="XMLID_64_" class="st0" d="M430.8.9c14.4 25 28.7 49.7 43.1 74.7h-23.2c-1.2 0-1.8-.3-2.4-1.3-5.5-9.2-11-18.4-16.6-27.6-.3-.5-.6-1-1-1.7-2.1 3.4-4.1 6.7-6 10l-35.1 58.5c-.6.9-1.1 1.3-2.2 1.3-7.4-.1-14.7 0-22.3 0 22-38 43.8-75.9 65.7-113.9z"/><path id="XMLID_63_" class="st0" d="M180.4 67.6h-53.1c-1.3 0-1.7-.3-1.6-1.7.1-5.4.1-10.8 0-16.2 0-1.2.2-1.6 1.5-1.6h106.3c1.2 0 1.5.2 1.5 1.5-.1 5.3-.1 10.7 0 16 0 1.5-.3 2-1.9 2h-52.7z"/><path id="XMLID_62_" class="st0" d="M126.2.9h107.6c1 0 1.4.2 1.4 1.3-.1 5.6-.1 11.2 0 16.8 0 1-.2 1.3-1.3 1.3h-84.5c-.7 0-1.2-.1-1.8-.6-7.1-6.2-14.2-12.4-21.4-18.8z"/><path id="XMLID_61_" class="st0" d="M126.2 114.8c7.3-6.4 14.4-12.6 21.4-18.9.5-.4 1-.5 1.6-.5h84.3c1.2 0 1.4.4 1.4 1.5-.1 5.5-.1 10.9 0 16.4 0 1.2-.3 1.6-1.6 1.6-13-.1-26 0-39 0h-66.4c-.3-.1-.9-.1-1.7-.1z"/><path id="XMLID_60_" class="st1" d="M460.7 94.9h23.6c.9 0 1.4.3 1.8 1.1 2.9 5.1 6 10.2 8.8 15.3.6 1 1.9 2.1 1.3 3.1-.5 1-2.1.3-3.2.3h-19.4c-.9 0-1.4-.2-1.9-1-3.2-5.4-6.5-10.8-9.8-16.2-.3-.8-.6-1.6-1.2-2.6z"/><path id="XMLID_56_" class="st0" d="M19.9 135.9c1.7 1.1 2.3 2.7 2 4.7s-1.4 3.2-3.3 3.7c-.8.2-1.7.4-2.5.4H2.2c-1 0-1.3-.3-1.3-1.3v-14.1c0-.9.3-1.2 1.2-1.2h13.6c.7 0 1.5.1 2.2.3 3.8 1 4.8 4.6 2 7.5zm-9.3 1.3H7.4c-4 0-4 0-3.9 4v.2c-.1.7.2.9.9.9h12.2c1.9 0 2.7-1 2.7-2.7 0-1.6-.8-2.3-2.7-2.4-2.1-.1-4.1 0-6 0zm-.4-2.4v-.1h6.9c1.2 0 1.7-.9 1.7-1.9 0-1.1-.4-1.9-1.5-2.2-.8-.2-1.6-.2-2.4-.2H6.7c-3.4 0-3.3 0-3.2 3.4 0 .9.3 1.1 1.1 1.1 1.9-.1 3.7-.1 5.6-.1z"/><path id="XMLID_55_" class="st0" d="M187.3 144.6c-2.5-.2-5 .3-7.5-.3-1.9-.5-3.2-1.5-3.5-3.5-.1-.5-.4-1.3.5-1.4.7 0 1.8-.6 2 .6.4 1.9 1.8 2.2 3.2 2.2 3.5.1 6.9.1 10.4 0 2 0 2.9-.8 3-2.3.1-1.9-.6-2.7-2.9-2.7-3.6-.1-7.2-.1-10.7-.1-.9 0-1.8-.1-2.7-.3-2-.5-2.9-1.5-3.1-3.4-.2-2.7.6-4.3 2.5-5 1-.4 2.1-.5 3.1-.5h10.3c1.1 0 2.2.2 3.3.6 1.3.5 2.3 1.5 2.5 2.9.1.6.6 1.5-.5 1.6-.7.1-1.8.6-2.1-.9-.2-1.2-1.3-1.7-2.4-1.7-4-.3-8-.3-12 0-1.4.1-2.1.8-2.1 2.3-.1 1.5.8 2 2.1 2.1 3.5.4 7 .1 10.6.2 1.3 0 2.7.1 3.9.5 2.1.7 3 2.1 3 4.4-.1 2.5-1.1 3.9-3.4 4.4-2.5.6-5.1.1-7.5.3z"/><path id="XMLID_54_" class="st0" d="M151.2 144.6c-2.3 0-4.7-.1-7 0-1.2 0-1.4-.4-1.4-1.5v-13.8c0-1 .3-1.3 1.3-1.3h14.4c.8 0 1.3.2 1.3 1.1 0 1-.5 1.1-1.3 1.1h-11.4c-1.1 0-1.6.2-1.5 1.5.1 3.2 0 3.2 3.2 3.2h9.3c.9 0 1.4.1 1.4 1.2 0 1.1-.6 1.1-1.5 1.1h-11.2c-.9 0-1.2.2-1.2 1.1-.1 4-.1 4 3.9 4h8.8c.9 0 1.4.1 1.4 1.2 0 1.1-.6 1.2-1.4 1.1h-7.1z"/><path id="XMLID_51_" class="st0" d="M61.6 132.7c1.4 0 2.8-.1 4.2 0 2.6.2 3.8 1.6 3.8 4.2v6.6c0 .9-.3 1.1-1.1 1.1H57.1c-2.8 0-4-1.2-4.1-3.8 0-2.3.8-3.4 3.1-3.7 3.2-.4 6.5-.2 9.8-.1.3 0 .8.4 1 0s.1-.9-.2-1.3c-.6-.8-1.4-1-2.3-1-1.9 0-3.7-.1-5.6 0-.9 0-1.9.1-2.4 1.2-.5 1.2-1.7.8-2.3.5-.7-.3-.5-1.3-.1-1.9.8-1.1 2.1-1.7 3.4-1.8h4.2zm-.3 6.4h-3.8c-1 0-1.7.3-1.7 1.6 0 1.2.4 1.7 1.6 1.7 2.7.1 5.3.2 8 0 1.1-.1 1.7-.6 1.7-1.7 0-1.2-.9-1.5-1.8-1.6h-4z"/><path id="XMLID_48_" class="st0" d="M426.9 136.9c1.7.1 3.3-.1 5 .2.9.2.9-.3.7-.9-.3-1.1-1.3-1.4-2.3-1.5-2-.1-4.1-.1-6.1 0-.9 0-1.7.2-2.2 1.3-.4 1.1-1.7.7-2.4.4-.7-.3-.4-1.3 0-1.8.8-1.2 2-1.8 3.4-1.8 2.8-.1 5.6-.1 8.3 0 2.6.1 3.9 1.7 3.9 4.3v6.2c0 .9-.2 1.3-1.2 1.3-3.8-.1-7.5 0-11.3 0-3.1 0-4.2-1.3-4.2-4.2 0-1.9.8-2.8 2.7-3.2 1.9-.4 3.8-.2 5.7-.3zm-.1 2.2h-4c-1.1 0-1.5.5-1.5 1.6 0 1 .4 1.6 1.4 1.7 2.7.2 5.4.2 8.1 0 1.1-.1 1.8-.6 1.7-1.7 0-1.1-.8-1.6-1.8-1.6h-3.9z"/><path id="XMLID_45_" class="st0" d="M317.2 128.2c1.4-.4 2.1.3 2.7 1.4 2.6 4.5 5.3 8.9 7.8 13.3.3.4 1.2 1.1.3 1.5-.7.3-1.8.5-2.6-.3-.1-.1-.2-.3-.2-.4-.9-2.7-2.8-3.4-5.5-3.1-2.4.2-4.8.1-7.2 0-1 0-1.7.2-2.1 1.2-.3.7-.8 1.4-1.2 2.1-.7 1.2-1.9.7-2.7.5-.7-.2-.1-.9.2-1.3 2.2-3.7 4.3-7.3 6.5-11 .5-.9 1.1-1.7 1.5-2.6.5-1.1 1.2-1.9 2.5-1.3zm-4.6 10h9.2c-1.6-2.7-3-5.2-4.6-7.9-1.5 2.7-3 5.3-4.6 7.9z"/><path id="XMLID_42_" class="st0" d="M35 139.1h-6.2c-.8 0-1 .3-.9 1 .1 1.3.7 2.2 2 2.3 2.7.4 5.4.3 8.1.1.8-.1 1.5-.5 1.7-1.3.3-1.6 1.5-1.1 2.2-.8.9.3.5 1.3.2 1.9-.7 1.5-2 2.2-3.6 2.3-2.9.1-5.9.1-8.8 0-3.1-.2-4.5-1.8-4.5-4.9v-1.9c0-2.8 1.6-4.7 4.3-5 2.9-.3 5.9-.4 8.8 0 2.9.4 4.3 2.3 4.1 5.2 0 .8-.3 1.1-1.1 1.1H35zm-7.2-2.1h10.1c.5 0 1.4.4 1.5-.3s-.5-1.3-1.1-1.6c-.5-.2-1-.4-1.5-.4-2.1 0-4.2-.1-6.2 0-1.4 0-2.4.6-2.8 2.3z"/><path id="XMLID_41_" class="st0" d="M338.8 144.6c-1.7 0-3.3.1-5 0-2.2-.2-3.3-1.3-3.4-3.1 0-.7.1-1.2.9-1.2.7.1 1.7-.4 1.7.8s.8 1.4 1.7 1.5c2.8.1 5.5.1 8.3 0 .9 0 1.9-.3 1.8-1.6-.1-1.2-1-1.4-1.8-1.4-2.7-.1-5.3-.1-8-.1-.9 0-1.7 0-2.5-.3-1.3-.5-2-1.4-2.1-2.7s.3-2.4 1.5-3.1c.9-.5 1.9-.7 2.9-.8 3-.1 6-.2 9 .1 2.2.2 3.6 1.2 3.7 2.7.1.5.3 1.4-.6 1.4-.7 0-1.8.6-2.1-.7-.2-1.1-1.1-1.3-1.9-1.3-2.8-.1-5.6-.1-8.3-.1-.9 0-1.5.4-1.5 1.4 0 1.1.8 1.3 1.6 1.4 2.7.1 5.4.1 8.2 0 .8 0 1.6.1 2.4.3 1.4.4 2.2 1.3 2.3 2.7.1 1.5-.3 2.7-1.8 3.4-.7.3-1.5.6-2.3.6-1.6.1-3.1.1-4.7.1z"/><path id="XMLID_40_" class="st0" d="M120.8 144.6c-1.7 0-3.3.1-5 0-2.3-.2-3.4-1.4-3.4-3.2 0-.8.3-1.1 1-1 .6.1 1.6-.4 1.6.8s.8 1.4 1.7 1.5c2.8.2 5.7.2 8.5 0 .9-.1 1.7-.3 1.7-1.5 0-1.1-.9-1.4-1.8-1.4-2.7-.1-5.3-.1-8-.1-.9 0-1.7 0-2.5-.3-1.2-.4-2-1.2-2.1-2.5-.1-1.4.1-2.5 1.4-3.3.7-.4 1.4-.7 2.3-.7 3.3-.2 6.5-.2 9.8.1 2.3.2 3.5 1.3 3.6 2.9 0 .5.1 1.2-.7 1.1-.6-.1-1.7.5-1.9-.6-.2-1.3-1.2-1.5-2.1-1.5-2.7-.1-5.4-.1-8.2 0-.8 0-1.6.3-1.6 1.4 0 1.1.7 1.4 1.6 1.4 2.7.1 5.4.1 8.2.1.8 0 1.5 0 2.2.3 1.4.4 2.3 1.2 2.5 2.8.2 1.8-.5 2.9-2 3.6-.7.3-1.4.5-2.2.5h-.6c-1.4-.3-2.7-.3-4-.4z"/><path id="XMLID_39_" class="st0" d="M285.3 144.6c-1.6 0-3.2.1-4.8 0-2.3-.2-3.5-1.4-3.4-3.2 0-.7.2-1.2 1-1.1.6.1 1.6-.4 1.6.7 0 1.2.8 1.4 1.7 1.5 2.8.2 5.6.2 8.5 0 .9-.1 1.7-.3 1.7-1.5 0-1.1-.9-1.4-1.8-1.4-2.7-.1-5.3-.1-8-.1-.9 0-1.7 0-2.5-.3-1.2-.4-2-1.2-2.1-2.5-.1-1.4.2-2.6 1.6-3.4.9-.5 1.8-.7 2.8-.7 3-.1 6.1-.2 9.1.1 2.3.2 3.5 1.3 3.6 2.9 0 .5.1 1.2-.7 1.2-.7 0-1.7.5-1.9-.6-.3-1.5-1.4-1.5-2.4-1.6-2.6-.1-5.1 0-7.7 0-.9 0-1.8.2-1.8 1.4 0 1.1.8 1.4 1.7 1.4 2.9 0 5.8 0 8.7.1 2.8.1 4.1 1.3 4.1 3.6 0 1.6-.8 2.6-2.6 3.2-2.2.6-4.3.2-6.4.3z"/><path id="XMLID_38_" class="st0" d="M359.3 144.6c-1.7 0-3.3.1-5 0-2.3-.2-3.5-1.3-3.5-3.2 0-.7.2-1.2 1-1.1.6.1 1.6-.4 1.6.7 0 1.3.8 1.5 1.8 1.6 2.8.1 5.5.1 8.3 0 .8 0 1.7-.2 1.7-1.4s-.8-1.4-1.7-1.5c-2.7-.1-5.3-.1-8-.1-.9 0-1.7 0-2.5-.3-1.3-.4-2-1.3-2.2-2.6-.1-1.4.3-2.5 1.6-3.2.6-.3 1.3-.6 2-.6 3.4-.2 6.7-.3 10.1.1 2.3.2 3.5 1.3 3.5 3 0 .5.1 1.1-.6 1s-1.7.5-1.9-.5c-.3-1.4-1.2-1.6-2.2-1.6-2.7-.1-5.3-.1-8 0-.8 0-1.6.3-1.6 1.3 0 1.2.8 1.5 1.7 1.5 2.7.1 5.3 0 8 0 .7 0 1.5 0 2.2.2 1.5.4 2.5 1.2 2.5 2.9.1 1.9-.6 3-2.3 3.6-1.7.6-3.4.4-5.1.4-.6-.1-1-.1-1.4-.2z"/><path id="XMLID_35_" class="st0" d="M203.9 143.8c0 1.6-.1 2.9 0 4.3 0 1-.4 1.2-1.2 1.2s-1.4 0-1.4-1.1c.1-4.6 0-9.2 0-13.8 0-1.6 1.1-2.3 2.5-1.4.3.2.3.3.7.2 3.1-.9 6.4-.5 9.5-.3 2.6.1 4 1.8 4.2 4.4v1.3c0 4.6-1.5 6.1-6.1 6.2h-4.2c-1.2-.1-2.5-.2-4-1zm6-9.1c-1 0-2-.1-3 0-2 .2-2.8 1.1-2.9 3.1v1.9c0 1.5.8 2.3 2.3 2.7 1.9.4 3.8.3 5.7.2 3-.2 3.8-.9 3.6-3.7v-1.4c.1-1.3-.7-2-1.9-2.4-1.3-.5-2.6-.3-3.8-.4z"/><path id="XMLID_32_" class="st0" d="M379.3 144.7c-1.3-.1-3 .2-4.5-.3-.5-.1-1-.3-1.5-.5-2-1.1-2.8-4-2.1-7.5.4-1.9 1.8-3.3 4-3.6 3-.3 6.1-.4 9.1 0 2.6.3 4 2.1 4.1 4.7.2 5.7-1.3 7.2-7.1 7.2h-2zm.4-10h-1.3c-4.8-.2-4.9 1.3-4.6 5.4v.2c.2 1.3.9 2 2.2 2.2 1.6.3 3.3.2 4.9.2 4.3 0 5-.7 4.8-4.9-.1-2-.9-2.9-3-3-1-.2-2-.1-3-.1z"/><path id="XMLID_29_" class="st0" d="M470.7 144.7c-1.5-.1-3.3.2-5-.3-2-.6-3-1.7-3.3-3.8-.1-.5-.1-1.1-.1-1.6-.3-4.5 1.5-6.3 6.3-6.3 2.2 0 4.4-.1 6.6.1 2.9.4 4.3 2 4.4 4.9 0 5.7-1.3 7.1-7 7.1-.6-.1-1.1-.1-1.9-.1zm.2-10h-1c-4.7 0-5.4.8-4.9 5.4.1 1.3.7 2 2 2.3 1.7.4 3.4.2 5.1.2 4.2 0 4.8-.6 4.8-4.8 0-2.1-.9-3-2.9-3.2-1 0-2.1.1-3.1.1z"/><path id="XMLID_26_" class="st0" d="M229.3 144.7c-1.5-.1-3.3.2-5-.4-2.1-.6-3.1-1.9-3.2-4-.1-1 0-1.9 0-2.9.1-2.6 1.3-4.3 4-4.6 3.1-.4 6.2-.4 9.3 0 2.5.3 3.8 2 4 4.4.3 5.9-1.2 7.4-7.1 7.4-.6.1-1.2.1-2 .1zm.4-10h-1c-4.8 0-5.2.5-5 5.2.1 1.4.7 2.3 2.1 2.6 1.6.4 3.3.2 4.9.2 4.3 0 4.9-.6 4.8-4.9 0-2-.9-2.9-2.9-3.1-.8-.1-1.9 0-2.9 0z"/><path id="XMLID_25_" class="st0" d="M399.6 144.6c-1.4 0-2.8.1-4.2 0-2.8-.2-4.2-1.8-4.3-4.6v-1.8c0-3.7 1.4-5.3 5.1-5.6 2.7-.2 5.3-.2 8 .1 1.8.2 3.3 1 4 2.8.2.5.6 1.4-.3 1.6-.7.1-1.9.8-2.2-.7-.3-1.3-1.3-1.7-2.4-1.7-2.3-.1-4.6-.1-6.9 0-1.7.1-2.5 1-2.6 2.7-.2 4.7.3 5.3 5 5.2 1.6 0 3.2.2 4.8-.1.9-.2 1.8-.5 1.9-1.4.3-1.7 1.5-1.3 2.3-1 1 .4.4 1.4.1 2-.8 1.8-2.4 2.3-4.2 2.5-1.3.1-2.7 0-4.1 0z"/><path id="XMLID_24_" class="st0" d="M268.7 134.8c-1.5 0-3.6-.6-4.5.2-1 .9-.3 3-.3 4.6 0 2.5.5 3 3 3 .9 0 1.7.1 2.6 0 1.4-.1 2.5-.5 2.6-2.2.1-1.4 1.2-1 2-.9 1 0 .8.8.7 1.4-.3 2.2-1.9 3.5-4.5 3.8-1.6.1-3.3.2-5 0-2.6-.2-4-1.8-4.1-4.6-.1-1.4 0-2.9 0-4.3 0-.6 0-1.1-.8-1-.6.1-.8-.4-.8-.9 0-.6 0-1.1.8-1.1s.9-.4.8-1c-.1-1.1.6-1.1 1.4-1.2.9 0 1.5.1 1.4 1.2-.1 1 .5 1 1.2 1 2.2 0 4.4-.1 6.6 0 .8 0 2-.6 1.9 1.1 0 1.5-1.2.9-1.9 1-1 .1-2 0-3 0-.1-.2-.1-.2-.1-.1z"/><path id="XMLID_23_" class="st0" d="M482.7 138.7v-4.3c0-1.6 1.1-2.3 2.6-1.4.2.1.2.5.7.3 2.9-1.1 5.9-.5 8.9-.5 3.1.1 4.8 1.8 4.9 4.9.1 1.9 0 3.8 0 5.8 0 1.1-.6 1.1-1.4 1.2-.9 0-1.4-.2-1.4-1.2.1-1.8 0-3.6 0-5.4 0-2.1-.9-3.1-2.9-3.2-1.9-.1-3.8-.1-5.8 0s-2.9 1.2-2.9 3.2v5.3c0 1-.3 1.4-1.4 1.4-1 0-1.5-.2-1.4-1.3.2-1.7.1-3.3.1-4.8z"/><path id="XMLID_22_" class="st0" d="M446.4 134.7c-1.3.1-3.3-.7-4.2.3-.8.8-.2 2.8-.2 4.3 0 2.8.5 3.2 3.3 3.2.9 0 1.7 0 2.6-.1 1.3-.1 2.3-.7 2.4-2.1.1-1.5 1.1-1 1.9-1 1.1 0 .9.9.8 1.5-.2 2-1.9 3.4-4.4 3.7-1.7.2-3.4.2-5.1 0-2.6-.2-3.9-1.8-3.9-4.3v-3.8c0-.8.4-1.9-1.2-1.8-.5 0-.5-.6-.5-1 0-.5.1-1 .7-1 .9.1 1.1-.4 1-1.2-.2-1.1.6-1 1.3-1 .8 0 1.5 0 1.3 1.1-.1 1 .3 1.1 1.2 1.1 2.4-.1 4.8 0 7.2 0 .8 0 1.3 0 1.3 1.1s-.6 1-1.4 1c-1.4-.1-2.7 0-4.1 0z"/><path id="XMLID_21_" class="st0" d="M109.4 138.7v4.5c0 .5.3 1.2-.4 1.4-.7.2-1.6.4-2.1-.2-.4-.5-.6-.3-1-.2-3.4.8-6.9.7-10.3.1-2.2-.4-3.3-1.9-3.3-4.1-.1-2.1 0-4.3 0-6.4 0-1 .4-1.2 1.3-1.1.8 0 1.5-.1 1.5 1.1-.1 1.9 0 3.8 0 5.8 0 1.9.6 2.8 2.4 3 2.3.3 4.7.3 7 0 1.8-.3 2.4-1.1 2.4-3s.1-3.7 0-5.6c0-1 .4-1.2 1.3-1.2s1.4.2 1.3 1.2c-.2 1.5-.1 3.1-.1 4.7z"/><path id="XMLID_20_" class="st0" d="M241.6 138.6v-4.2c0-1.7.8-2.3 2.3-1.5.6.3.9.2 1.4.1 2.8-.4 5.6-.6 8.4.2 1.7.5 2.8 1.7 3.1 3.5.1.5.3 1.3-.5 1.2-.7 0-1.9.7-2.1-.7-.3-1.9-1.6-2.4-3.2-2.4-1.2-.1-2.5-.1-3.7 0-2 .1-2.9 1.1-2.9 3.1v5.6c0 1.1-.6 1.1-1.4 1.1-.8 0-1.3-.1-1.3-1.1 0-1.6-.1-3.3-.1-4.9z"/><path id="XMLID_19_" class="st0" d="M73.3 138.6v-4.3c0-1.6.9-2.2 2.4-1.5.2.1.2.5.7.3 2.4-.9 5-.5 7.4-.4 2.6.1 4.5 1.9 4.6 4 0 .5.1 1.1-.6 1s-1.6.6-2-.6c-.8-2.1-1.4-2.5-3.6-2.5H79c-2.1.1-3.1 1.1-3.1 3.2 0 1.8-.1 3.6 0 5.4 0 1-.4 1.2-1.3 1.2s-1.4-.1-1.3-1.2c.1-1.4 0-3 0-4.6z"/><path id="XMLID_18_" class="st0" d="M49.2 136.3v7c0 1-.3 1.3-1.3 1.2-.8 0-1.4-.1-1.4-1.2v-14.2c0-1.1.6-1.1 1.4-1.1.9 0 1.3.2 1.3 1.2-.1 2.5 0 4.8 0 7.1z"/><path id="XMLID_17_" class="st0" d="M414.7 138.6v4.9c0 1.1-.6 1-1.3 1-.8 0-1.3 0-1.3-1.1.1-3.3.1-6.6 0-9.9 0-1.1.7-1 1.4-1s1.4-.1 1.3 1c-.1 1.8-.1 3.5-.1 5.1z"/><path id="XMLID_16_" class="st0" d="M456 138.5c0-1.5.1-3.1 0-4.6-.1-1 .4-1.3 1.3-1.2.8 0 1.4 0 1.4 1.1-.1 3.2-.1 6.4 0 9.6 0 1.2-.6 1.2-1.5 1.2-1.1.1-1.2-.5-1.2-1.3.1-1.6 0-3.2 0-4.8z"/><path id="XMLID_15_" class="st0" d="M167.7 138.8h-3.4c-1 .1-1.1-.5-1.1-1.3 0-.9.4-1.1 1.2-1.1h6.9c1 0 1.1.5 1.1 1.3 0 .9-.3 1.1-1.2 1.1-1.2-.1-2.3 0-3.5 0z"/><path id="XMLID_14_" class="st0" d="M413.4 128.1c1-.2 1.4.1 1.4 1.1s-.5 1.2-1.4 1.2-1.3-.2-1.3-1.2c0-1.1.5-1.2 1.3-1.1z"/><path id="XMLID_13_" class="st0" d="M457.4 128.1c.9-.1 1.3.1 1.3 1.2 0 1.1-.5 1.2-1.4 1.2s-1.3-.3-1.3-1.3c0-1.1.5-1.2 1.4-1.1z"/></g></svg>