<svg id="Layer_1" xmlns="http://www.w3.org/2000/svg" viewBox="0 0 1000 1000"><style>.st0{fill-rule:evenodd;clip-rule:evenodd;fill:#fdfdfe}</style><g id="XMLID_2_"><path id="XMLID_3_" class="st0" d="M956.5 456.1h-98.1c-17.8 0-32.2 14.5-32.2 32.2v84.5c0 17.8 14.5 32.2 32.2 32.2h98.1c17.8 0 32.2-14.5 32.2-32.2v-84.5c0-17.8-14.4-32.2-32.2-32.2zM596 344.9h-12.1v-2.1c3.3.1 5.4-.6 3.9-3.5-2.2-4.4 7.4-4.1 8.9-3.2 2.5 1.6.9 6.5-.7 8.8zm-16.5 2.9h14.6c-1.6 2.5-6.2 10.7-9.1 10.8-1.2-1.6-5.1-7-5.5-10.8zm279.4 140.5H956v84.5h-97.1v-84.5zm-199.2 0h135.1c0-17.8-14.5-32.2-32.2-32.2H658.8c-17.7 0-32.2 14.5-32.2 32.2v84.5c0 17.8 14.5 32.2 32.2 32.2h103.7c17.8 0 32.2-14.5 32.2-32.2V517H685.1c0 13.7 11.2 24.9 24.9 24.9h54v30.9H659.7v-84.5zm-421.9 0h129c0-17.8-14.5-32.2-32.2-32.2h-99.8c-17.8 0-32.2 14.5-32.2 32.2v26.1c0 17.8 14.5 32.2 32.2 32.2h100.1v26.1H202.5c0 17.8 14.5 32.2 32.2 32.2h103.2c17.8 0 32.2-14.5 32.2-32.2v-26.1c0-17.8-14.5-32.2-32.2-32.2H237.8v-26.1zm-185.7 0h121.8c0-17.8-14.5-32.2-32.2-32.2H43.5c-17.8 0-32.2 14.5-32.2 32.2v84.5c0 17.8 14.5 32.2 32.2 32.2h98.1c17.8 0 32.2-14.5 32.2-32.2H52.1v-84.5zM627 330.2c-.6.3-1.4.6-2.4.8-4.6 6.5-1.8 5.8-9.9 11.2 0 10.9.3 12.1 2.9 21.8.1.2 0 .5-.1.7-.1.2-.3.3-.5.4-2 .4-4.8 1.1-6.4 1.5.1.3.8 6.5 0 11.1-1.4 7.2-18.6 23-22.7 23.8-5.7 1.1-12-3.9-22-8.3-2.7-1.2-11.9-7.2-16.7-8.8-4-1.3-8 8.4-3 11 2.3 1.2 6 2.8 7.1 5.9 3.4 8.9-.5 43.3-7.6 50.3-3.4 0-6.2-3.1-8.7-2.3-4.5 2.4-1.6 16.1 0 18.5 27.5 28.3 24.2 49.2 35.9 64.8 5.3 0 1.8 5.6 5.9 12.3 1.1 3.4-.3 9.2-.9 11.4v8.5l-.9 2.7v7.5c-.8 3.6-1.7 8.5-2.5 11.9-1.6 7.2 4.7 12.7.9 19.5 0 4.2 0 3.4-2.5 6.7 0 6.5-1.5 20.2 0 25 1.1 3.4 13.3 17.6 16.3 19 7.4 3.3 18.3 2.6 14.7 14.2-21.6 6.6-35.4-3.7-46.9-3.9l-.5 2c-7.4 0-13.3-1.8-14.9-2.3 0-2 2.4-17.3 3.2-19.7.8-1.3 1.7-2.6 2.5-3.9.9-2.6-.9-21.7-1.1-26.8-4.6-3.4-5.5-13.7-5.5-19.4-1.3-4.4-1.3-9.6-1.6-15.3-.1-2.7-1.7-6.6-.7-9.9.7-2.3 3.3-3.3 3.9-5.2v-6.4c1.2-6.7.8-9.8-3.2-13.9-10.1.1-11.5.6-17.1-8-1.7-2.7-15.9-25-17.2-25.6-11.8-5.1-9.4-3.1-14.6-12.3-.2 0-3.3 1-6.1 5.2-4.2 6.3-11.7 26.7-13.8 33.9-1.2 4 0 8.4-1.8 11.7-1.3 2.4-5.5 3.2-6.4 4.8-4.1 7.4-1 6.8-8.9 12.1-1.4 1.8-1.5 4.6-2.5 6.7-.6.8-1.2 1.7-1.8 2.5-1.3 2.8 1.4 8 .9 9.8-1.4 4.7-3.1 9.3-5 13.7-3.6 8.5-3.1 19.9-6.8 25.1-1.8 2.6-6.2.1-9.6 2.2-.2 1.8-5.5 14-6.6 17.4v19.4c1 3.3 3.8 6.4 2.9 10.5-.9 4.4-16.2 4.3-24.5 3.1-5.6-.8-7.2-4.9-7.1-9.6.1-5.6 11.4-41.9 10.7-44.3-8.6-9.7 2.3-19.6 5.5-28.6 1.6-4.4.6-10.5 2.3-14.6 3-5.5 6-11 9.1-16.5 5.5-5.2 3.1-5.5 6-10.1 2.6-4 5.7-6.8 3.9-13-3.7-12.5 4.3-30.1 4.8-43.2-1.4-1.5-6.2-1-6.8-5-1.2-8.1 3.1-22.4 5.7-23.8 1.2-.6 2.5-.1 3.6-.7 0-6.1-6-39.8-1.5-41.6 2.8-1.1 9.3-1.6 10.6-2.2-.1-1.4-1.1-4.5-2.3-4.7-2-.3-6.1-1.1-9.4-1.8-10.1-2.3-.8-42.1-.6-42.3 2.8-3.7 15.7 1.3 17.2-5 4.3-5.5-3.3-26.6 11.4-52.7 5-8.8 14.5-17.7 25.6-13.9 3.7 1.3 1.5 6.6 8 .9.2-3.3-1.4-6.1-2.3-8.9-10.9-32.4 25.9-49.9 51.7-31.4 2.9 1.2 4.6 1.8 6.7 3.4 1.4 7.3 8.7 20.4 1.4 28.9-3 .6-6.6 2.3-8.9 3.9 0 3 .3 5.7.9 7.5.5 1.6 1.4 2.2-1 3.2-.3.1-.2 1.1 0 1.5 6 1.2 12.4-1.1 16.4-2.7h4.8v-6h2.2v-4.7h2.3v8.2h6v2.6h88.8v4.6h3.9v-16.9h3.3V313h7.6v7.8h23.5v-2.3h3.9v1h11.1v6.5h-11.1v1h-3.9v-2.3H681v2.3h-10.4v-1.6h-4.4v4.7H627v.1z"/></g></svg>