<svg xmlns="http://www.w3.org/2000/svg" viewBox="194 -104 1000 1000"><style>.st0{fill:#fff}.st1{fill:#f4f4f4}</style><g id="Layer_1"><g id="XMLID_2_"><path class="st0" d="M349.2 737.8l-81.6-.8v3.9s15.2-2.3 17.8 7.5c.3 6.4-.4 108.7-.4 108.7s-.8 9.3-14.4 8.9c.1 1.4 0 1.9 0 1.9s33.5-.8 48.4 1.9c108.5 19.6 119.2-131 30.2-132zm31.9 98.5c-10.2 25.2-61.7 36.2-73.1 15.5l-.7-104.9c86.6-6 85.7 60.2 73.8 89.4zm150.3-101.8c-37 0-70.9 25.5-70.9 69.2 0 43.6 35 67.3 72 67.3s71.5-27 71.5-70.6c0-43.6-35.6-65.9-72.6-65.9zm10 128.3c-25.2 0-50.9-12-56.8-59.5 0-29.6 7.2-57.9 40.9-60.1 28.8-1.9 53.4 27.3 53.4 57 .6 30.5-7.2 59.8-37.5 62.6z"/><path id="XMLID_12_" class="st0" d="M651.8 734.8l-4 18.2s-1.4 3.6.3 9.5c1.5-4.1 1.8-10.6 11-14.2 9.3-.4 36.6-.4 36.6-.4l-.5 109.9s-.2 9.7-13.9 8.4c-.1 1.6-.1 2-.1 2l56-.3-.1-2.1s-17.4 2.5-18.3-8c-.1-5.5-1-110-1-110l32.2.8s11.1.3 11 13.8c1.5.9 2.5-.4 2.6-1.9s.6-18.4.6-18.4 2.7-5.8-.8-6.3c-3.4 1.2-7.2 1.8-9.7 1.8s-93.5-.1-93.5-.1-4.1-2.3-8.4-2.7z"/><path class="st0" d="M923.7 836.9c4.1-1.7 11.5-3.9 20.5-3.9 1.2-1.4-.3-3-3.6-3.2-3.5-.3-31.6-.3-31.6-.3l-38.4-94.9c-.2.2-2.3-6-4-.3l-50 123s-5.1 10.3-19.1 9.4c0 1.1-.1 1.7-.1 1.7l45.7.1-.1-2.5s-14.8 1.2-12.8-6.2c1.8-6.2 7.2-21 7.2-21l51.2.1 10.1 23.9s1.2 2.8-3.6 3.1v2l45.7.6-.1-3s-11 3.1-17-5.3c-4.5-7.6-11-21.5-11-21.5s7 .6 11-1.8zm-83.3-6.9l23.3-59.9 21.3 59.4-44.6.5z"/><path id="XMLID_8_" class="st0" d="M1040.1 770.9s-4.1-22.7-3.1-28.1c35-20.5 112-3.1 62.2 68.1-5.2 6.4-25.3 28.1-44.9 42.6 14.3.2 39.7-.7 45.7-1 15.6-.6 15.1-19.3 20.4-19.4l-4.7 27.4s-.1 8.1-9.5 7.4c-9.4-.1-74.7.3-74.7.3s-6.2.1-.5-4.8c9.4-8.9 61.9-49.3 60.3-91.7-1.4-36.2-44.1-41.4-51.2-.8z"/><path id="XMLID_3_" class="st1" d="M481.9 333c6.7 4.2 11 8.3 17.6 13.6l52.7 48.9c11 10.4 39.2 38.9 49.9 51.4 7.4 8.6 10.6 9.5 16 17.9-2 .7-26.6 6.4-40.9 11.3-29.8 10.3-57 26.7-82.9 17.9-3.9-1.3-21.6-18.2-29.7-23.9-4.8-3.4-9.4-6.5-14.8-10.4-15.8-11-20.3-3.4.6-52.3 5.5-12.8 10.2-24.3 15.4-36.9 4.6-10.9 10.8-28.6 16.1-37.5zM860.6 37.7c10.9 3.8 37.1 18.8 43.6 26.9 5.4 6.8 3.9 7.4 1.9 17.2l-10.7 83.6c-14.8.5-10.5-1.2-19.7-7.4-15.4-10.3-68.2-49.3-85.2-63l-32.6-26.2c2.4-2.2-.8-1.1 4.6-2.5l48.3-10.9c25.1-6.2 29-7.9 49.8-17.7zM427.8 54.5c11-6.2 17-1.5 35.6-15 5-3.6 16.5-3.3 23.5-2.3 7.2 1 23.9 14.8 31.6 19.6 4.4 2.7 24.3 17.9 27.6 23.2l9.8 15.8c13.5.7 11.1-.1 28.3 12.4L747.7 216c35.2 24.4 76.2 49.4 111.5 74L960 355.9c-2.9 6.3-6.3 27.8-8.2 36.4-8.8 39.6-19.7 56.4-37.5 94.5-25.5 1-45.7.8-70.6.4-8-.1-6.1 1.6-10.5-2.7-14.6-14.1-41.2-45.3-55.9-59.6-5.1-4.9-9.7-9.6-14.8-14.9-40.8-43.5-21.5-30.4-29.5-41.3l-82.3-77.5c-18.8-18.4-35.9-38.1-55.3-58.8-5-5.3-7.5-10.3-12.7-15.1l-1.4-1.3c-1.4-1.3-.9-.8-2.1-2.3l-23.9-27.1c-4.2-3.9-3.8-3.8-6.9-7.2l-21.5-22.2c-4.7-4.9-8.4-10.1-12.9-15.4L493.3 120c-3.1-3.1-5.3-4.1-8.3-7.2-9.7-10.2-17.9-19.9-27.8-30.1-7.9-8-27.1-23.6-29.4-28.2zm98.6-121.4l-168.6 3.4c-9.1 33.6-.1 16.6 0 51.6v63.5c-1.4 18.3-6.2 27.7-6.2 52.1 0 8.2-1.9 27.2 2.1 33.7 7 11.4 6.8 21.1 9.8 37.7 2.7 14.7 5.5 13.2-1.1 24.2l-3.1 28.1 14.4 14.1.1 24.7c-8.6 7.9 1.1 2.3-17.1 15.4l1.6 74.4 17.9 13-3.7 63.5c-18.8 13.5-14.8 29.9-14.2 46.7l2.3 63.3-4.2 32.4c42.2 10.6 33 7.3 81.2 7.3 42.7 0 37.1.4 79.3-4.7l1.1 7.2c6.5-.4 13.3-.8 19.7-1.4 17.9-1.8 10.8-3.8 17-6.1 4.5-1.6 52.5 9.5 60.4 11.2 4.3-4.9 2.1-2.9 8.1-6.8 3.3 6.9 17.1 22.6 22.8 29.5l17.4-16.4 30.5 11.8 8.9-7.5c3.4 4.2 5.6 9.3 11.8 10.1 9 1.1 10.5-13.8 30.5-14.1l115.7-3.9c1.5-1.4 2.4-2.3 4-3.8l5.9-4.8c7.6 4.6 10.9 9 21.3 8.3 31.9-2.1 15.2 7.7 56.4 5.5 7.1-.4 5.3-2.1 11.6-4.3l13.3-2c-2.9-7.8-4.8-6.7-10.5-12.6l73.3 14.8c-1-86.3-.8-191.4.3-280.2l-19.7 1.5c.7-5.7 9.3-3.6 10-15.2.9-14.6.7-64.5-1.4-75.2-1.1-5.5-15-21.4-18.7-26.3 4.4-12 4.9-11.2 13.1-21-.7-6.5-2.2-8.1-4.9-15.6l21.5-7.1c.3-12.4 1.6-61.9.8-77.6l-9-84.5 6.6-21.1.3-21.7c-18.6-10.7-16.1-11.8-29-11.8-11.6.1-27.1-.5-38.2-3.1-14.2-3.3-10.4-5.6-26 10.4l-7.1-15.4c-22.3-1.7-93.7-7.9-110.7-7.9-21.7 0-18.6 1.6-25.9 26.2L767-50.2l-4.2-13.4-28.2-.4 3-3.3c5.5-5.2 3.6-3.2 7.9-12.4H632c-3.7 6.9-10.6 12.2-18.7 14.9-11.3 3.7-5.7-2.3-12.8 4.2-5.4 4.8-6.3 4.5-14.7 4.3-11.2-.3-22.6-.6-33.9-1.1-5.1-.2-10.9.3-15.8-.9-7.8-1.6-5.6-3.6-9.7-8.6z"/></g></g></svg>