<svg xmlns="http://www.w3.org/2000/svg" viewBox="194 -104 1000 1000"><style>.st0{display:none}.st1{display:inline;fill:#1c1c1c}.st2{fill:#f4f4f4}.st3{fill:#dcdbdb}.st4{fill:#f2f1f1}.st5{fill:#f7f6f6}</style><g id="Layer_2" class="st0"><path class="st1" d="M329.3 267.3H1104v539.3H329.3z"/></g><g id="Layer_4"><g id="XMLID_37_"><g id="XMLID_36_"><path id="XMLID_34_" class="st2" d="M870.1 130.7c30 14.6 60.1 29.2 90.1 43.8 1.6.9 3.1 1.8 4.7 2.7.5.5 1.1 1.2 1.7 2.2.2.5.4.9.6 1.3-.3.6-.6 1.1-.9 1.7-1.3 2-2.8 3.5-4 4.5-.1.1-.3.4-.7.7-43.8 39.6-95.9 79.3-157.2 114.9-10.6 6.1-21.1 12-31.5 17.5l-.8.4c-1.3.5-2.5.6-3.4.7-.9 0-1.9-.1-2.8-.1-1 0-2.4-.2-4-.9-1.3-.6-2.2-1.3-2.5-1.5-1.4-1.1-2.2-2.4-2.7-3.3-.7-1.2-1.3-2.7-1.7-4.4 0 0-.1-.4-.2-.9-8.5-51.8-16.7-104.4-24.5-158-8.1-55.7-6.9-42.6-15.7-113.8-8.1-65-12.8-104.3-12.8-100 0 0-.1 1.1-.1 2.1-.6 15.9.1 26 .1 26-2.1 16.9-4.7 42.5-5.8 73.7-1.1 31.2.4 40.6.7 72.7.7 78.1-7.2 85.8-5.3 155.3 1.4 53 2 66.7 2 66.7.4 9 1.1 24.2 1.1 45.1 0 16.7-.6 13.1-.3 23.9 1 31.9 5.3 63.5 5.3 63.5 1 7.2 1.9 13.2 2.6 17.5C808 384.5 913.8 284.4 1019.7 184.2l4.1-3.5-8.8-2.9-144.9-47.1z"/><path id="XMLID_39_" class="st3" d="M533.6 130.6c-30.1 14.6-60.1 29.2-90.2 43.8-1.6.9-3.1 1.8-4.7 2.7-.5.5-1.1 1.2-1.7 2.2-.2.5-.4.9-.6 1.3.3.6.6 1.1.9 1.7 1.3 2 2.8 3.5 4 4.5.1.1.3.4.7.7 43.9 39.6 96 79.3 157.5 114.9 10.6 6.1 21.1 12 31.6 17.5l.8.4c1.3.5 2.5.6 3.4.7.9 0 1.9-.1 2.8-.1 1 0 2.4-.2 4-.9 1.3-.6 2.2-1.3 2.5-1.5 1.4-1.1 2.2-2.4 2.7-3.3.7-1.2 1.3-2.7 1.7-4.4 0 0 .1-.4.2-.9 8.5-51.8 16.7-104.4 24.5-158 8.1-55.7 6.9-42.6 15.8-113.8 8.1-65 12.8-104.3 12.8-100 0 1.3 2.2 17.7-.3 100.9v445.7L384 184.1l-4.1-3.5 8.8-2.9 144.9-47.1z"/></g><g id="XMLID_33_"><path id="XMLID_35_" class="st2" d="M701.8 580.9c18.2-29.7 38.4-60.3 60.5-91.4 51.4-72.1 104.2-133.8 154.7-186-71.7 70.4-143.5 140.8-215.2 211.3-.3 1-.7 2.6-1.1 4.5-1.3 5.8-1.9 11.2-1.9 22.9-.1 13-.1 22.3 2.3 34.6.2 1.7.5 3.2.7 4.1z"/><path id="XMLID_38_" class="st3" d="M701.8 580.9c-18.2-29.7-38.4-60.3-60.5-91.4-51.4-72.1-104.2-133.8-154.7-186 71.7 70.4 143.5 140.8 215.2 211.3v66.1z"/></g></g><g id="XMLID_2_"><path id="XMLID_16_" class="st2" d="M839.9 725.5c-6.6-.1-13.1 0-20.7 0 2.7 2.3 5 3.2 7.3 4 .9 1.1 2.2 1.3 3.3 1.8 2 .9 2.7 1.8 1.6 4.1-2.8 5.8-7 9.5-13.3 11.1-9.3 2.4-19.1-4-21.6-12.6-2.6-9.2 1.6-18.1 10.3-21.9 5.7-2.5 11.3-1.9 16.8.7 1.1 1 2.7 1.7 3.3 2.9 2.3 4 5.9 3.4 9.5 3.4 1.9 0 2.7-.6 1.4-2.5-1.5-2.2-2.7-4.6-5-6.2-2.3-1.9-7.7-5.7-15.4-6.6-2.5-.3-12.8-1.3-21.3 5.9-1.6 1.4-6.6 6.3-8.6 14.2-2 8 2.2 19.3 9.3 23.8 8.7 7.1 18.4 8 28.4 4.1 10.2-4 15.2-12.3 16.3-23.1.3-1.4.4-3.1-1.6-3.1z"/><path id="XMLID_21_" class="st4" d="M1097.4 702.8c-1.4-.2-2.8 0-4.2 0-5.4 0-5.4 0-5.4 5.2v29.4c0 .8.5 1.7-.5 2.2s-1.3-.6-1.8-1.2c-1.5-1.6-31.4-35-31.4-35s-1.2-.6-1.5-.3c-.5.4.2 1.7.2 1.9-.1 15.7-.1 31.3 0 47 0 .8-.5 1.9.6 2.5 2.7.9 5.3.3 8.8.4-1.9-2.1-1.6-4.2-1.6-6.2 0-7.6-.6-24.6.4-25.1s22.4 24.6 24.9 27.6c3.5 4.1 7.1 2.6 11 3-1.5-2-1.4-4-1.4-6.1 0-13 .1-26 0-39 0-2.1.5-3.6 2.1-4.8 1.7-.7 1-1.3-.2-1.5z"/><g id="XMLID_6_"><path id="XMLID_18_" class="st2" d="M577.8 739.1c-1.2-2-.9-3.1.9-4.5 10.3-7.9 9.3-22.4-1.9-29-1.9-1.1-3.6-1.7-5.5-2.2-1.6-.5-4.7-1.3-11.7-1.3-3.4 0-7.8.1-13.1.8.4.4.9 1 1.3 1.9.8 1.6.7 3.2.7 4.9-.1 14-.1 28-.3 42 0 2.1 1.3 2.1 2.3 2 2.1-.2 4.3 1 4.3-2.5.1-3.3.2-6.5 0-9.8-.1-2.5.6-3.2 3.3-3.4 2.3-.2 4.2-.1 6.3 0 5.4.2 9.6 10.3 10.1 11.9 1.7 5.6 4.9 4.1 8.2 4.3 2.3.2 3-.5 1.7-2.8-2.2-4.2-4.2-8.4-6.6-12.3zm-10.8-6.9c-3.7.2-8.4 1.7-10.7-.8-2.1-2.2-.7-15.5-.7-18.1 0-1.6 0-2.5.6-3.1.5-.5 9.6-.1 12.5.2 4.2.4 7.2 3 8.3 8.4 1 4.3-3.7 13-10 13.4z"/><path id="XMLID_19_" class="st2" d="M554.7 753.3c.2-.2.3-.5.4-.8-.1.3-.2.6-.4.8z"/></g><path id="XMLID_15_" class="st2" d="M467.5 750.3c-6-13.7-11.8-27.5-17.8-41.3-.9-2-1-4.6-3.4-5.8-7.4 16.9-14.8 33.7-22.3 51h6.9c1.2 0 2.1-.6 2.4-1.7.6-2 2.1-2.1 3.9-2.1 5.6.1 11.2 0 16.8 0 2.7 0 5.7-.6 6.9 3 .2.7 1.1.7 1.8.7h8c-1.4-1.5-2.7-2.5-3.2-3.8zm-12.9-6.5c-5.1 0-10.3-.1-15.4-.1-2.2 0-2.2-1.2-1.5-2.8 2.5-5.7 5-11.4 7.4-17.2l.1-.1c-.1 0-.1.1-.2.1 0-1.2-.4-2.7 1.3-3.2.7-.2.9.4.9 1.1h.1c2.8 6.7 5.4 13.5 8.3 20.2.8 1.8.3 2-1 2z"/><path id="XMLID_23_" class="st2" d="M685.4 702.5c-8 17.5-14.7 34.8-23.1 51.9 3.8-1 8.4 1.7 10.9-3.5.4-.9 1.7-.5 2.6-.5h16.1c3.1 0 6.5-.9 7.9 3.2.2.6.9.6 1.5.6h7.3c-8.6-16.8-14.9-34.3-23.2-51.7zm10 41c-.4.9-1.4.7-2.2.7-5 0-10 .1-15 0-3.2-.1-3.2-1.6-1.4-3.6 2.8-6.5 5.6-13.1 8.7-20.3 3.1 7.4 6 14.2 8.8 21 .8.5 1.6 1.1 1.1 2.2z"/><path class="st5" d="M331.4 703.4c-8.3-1.5-16.7-.6-25.1-.9-.6 0-1.3-.1-1.3.7 0 .8.6 1.1 1.4 1 1.2 1.1 1 2.5 1 3.9v39.1c0 1.8.5 3.7-.7 5.4-.7 1 .1 1.3 1 1.5 6.6 1.1 7.7.2 7.7-6.4v-1c0-7.6 0-7.5 7.6-7.7 5.3-.2 10.6-.2 15-3.9.1 0 .1-.1.2-.1 5.5-3.3 7.9-8.6 7.9-14.6 0-7.6-7.2-15.6-14.7-17zm-18.8 44.8c-.8-3.2-.3-6.2 1.7-9.2v.2c-1.9 2.9-2.4 5.9-1.7 9 .4 1.1 1 2.5-.9 2.7h-.1c1.8-.1 1.2-1.6 1-2.7zm-4 2.4c.1-14 .1-28 0-42 0-1.8.4-3.9-2.2-4.4h.1c2.6.5 2.2 2.6 2.2 4.4 0 14 0 28-.1 42 .1.9-.1 1.8.8 1.8-1 .1-.8-.9-.8-1.8zm1.8 1.8c.8 0 1.8.3 2.6.3-.7-.1-1.7-.3-2.6-.3zm5-31.4c0-2.9.1-5.8 0-8.7-.1-1.9.3-2.9 2.5-2.7 5 .5 10.2-1.2 14.7 2.4 3.5 2.8 5.4 7.5 4.2 12-1 3.9-5.9 8.1-9.8 8.3-3.1.1-6.3 0-9.4.1-1.7.1-2.2-.7-2.2-2.3.1-3 0-6 0-9.1z"/><path id="XMLID_32_" class="st2" d="M968.8 713c-1.2-1.4-8-9.5-19.8-10.3-1.7-.1-13.2-.7-21.7 8.2-.5.5-.8.9-.9 1-6.8 7.8-6.1 18-6 18.7.1.9 1.1 10.5 9 17.2 8.6 7.2 23.6 9.7 34.4 1 10.5-8.4 12.9-24.2 5-35.8zm-40.3 14.8c.3-9.5 9.2-18.1 18.5-17.7 11.1.4 18.9 8.4 18.6 18.8-.3 10.1-8.5 18-18.5 17.8-10.8-.2-18.9-8.5-18.6-18.9z"/></g></g></svg>