<svg id="Layer_1" xmlns="http://www.w3.org/2000/svg" viewBox="0 0 1000 1000"><style>.st0{fill:#f4f4f4}.st1{fill:#fff}</style><path id="XMLID_8_" class="st0" d="M682.3 196.7l-45.8-46.5-49.2-48.6h-201l-47.9 48.6-45.8 46.5h146.5v419.8l48.3 47.7 48.3-47.7V196.7l-48.3-46.5 48.3 46.5h146.6z"/><path id="XMLID_5_" class="st0" d="M634.8 242.1h-46.1v187.3L540.5 477l33.9 32.9 34.2 33.3 73.7-72.9V242.1h-47.5zM386.2 429.5V242.1h-93.7v228.2l73.7 72.9 34.2-33.3 33.9-32.9-48.1-47.5z"/><path id="XMLID_2_" class="st0" d="M379.8 76L261.2 194.6v287.3L487.5 704l226.3-222.1V194.6L595.2 76H379.8zM239.4 180.3l126.1-126 3.7-3.8h236.4l3.7 3.8 126.1 126 3.8 3.8v308.5l-3.8 3.8-239 234.5-8.9 8.8-8.9-8.8-239.1-234.6-3.8-3.8V184.1l3.7-3.8z"/><path id="XMLID_34_" class="st1" d="M607.5 855.4l2.1-15.2 2 15.2h-4.1zm212.7-32.1l-24.5 4-2.2.4v-2.3c0-1-.1-2-.1-3-.2-2.9-.7-5.1-1.3-6.5-.4-.8-.7-1.3-1-1.3-.1 0 0 0 0 0-.4 0-.8.2-1.1.6-.4.4-.7 1-.9 1.7-.2.8-.3 1.8-.3 2.8.2 2.6 1.5 5.8 4.5 8.7 1.8 1.7 3.7 3.5 5.6 5.2 11.8 10.8 23.4 21.5 23.7 40.2.1 3.9-.9 8.2-2.5 12.1-1.7 4.3-4.2 8.3-6.8 11.1-2.7 2.9-6.2 4.9-9.8 6.2-4.6 1.7-9.5 2.3-13.3 2.3-7.7 0-13.8-2.1-18.5-5.7l.8 1.9 1.1 2.7h-32.7l-.5-1.2-9.1-21.8v23.1h-53.7l-.4-1.4-7.9-24.5-.1 23.9v2h-53.7l-.3-1.6-3.5-22.2h-3.5l-4.3 22.3-.3 1.6h-54.4v-1.9l.1-56.1h-16.4v5.4h13.3v2l-.1 19.1v2h-13.2l-.1 27.7v1.9h-23.2v-10.5c-.9 1.5-2 3-3.3 4.2-3.9 3.9-9.3 6.3-15.3 6.3s-11.4-2.4-15.3-6.3c-3.8-3.8-6.2-9-6.3-14.8-1.6 4.3-4.2 8.5-7.6 11.9-5.3 5.4-12.4 9.2-19.7 9.2H333.9l-.4-1.5-7.3-28.8v30.3H297v-15.2c-1.4 2.5-3.2 4.9-5.2 6.9-5.6 5.6-13.4 9.1-21.9 9.1s-16.3-3.5-22-9.1c-5.6-5.6-9.1-13.4-9.1-21.9v-26.3l-8.6 54.8-.3 1.7h-26.5l-.2-1.7-2.1-16-2.1 16-.2 1.7h-26.5l-.3-1.6-19-112.3-.4-2.3h29.8l.3 1.6 2.1 12.8 1.6-12.7.2-1.7h27.9l.2 1.7 1.6 12.7 2.1-12.8.3-1.6h29.7l-.4 2.3-1 6.6c.4-.4.7-.8 1.1-1.2 5.6-5.6 13.4-9.1 22-9.1s16.3 3.5 21.9 9.1c2.1 2.1 4 4.6 5.4 7.2v-15h33.8c5.6 0 12.6 2.1 18.2 6.6 3.5 2.8 6.4 6.5 8.1 11.2v-17.9h28.9v2l-.2 84.4h22l.2-84.4v-2H442c7.9 0 15.1 4 20.3 9.8 5.2 5.8 8.5 13.4 8.5 20.9v17.6c1.1-2.6 2.7-5.1 4.7-7.1 3.9-3.9 9.3-6.3 15.3-6.3s11.4 2.4 15.3 6.3c1.3 1.3 2.4 2.8 3.4 4.3v-10.7h39.7v-5.9h-16v-2l-.1-25v-2h93.1l.3 1.6 12.7 77.9.1-77.6v-2h29.4l.4 1.4 8 26.3v-27.7h54.3v14.1l7-13.1.6-1h32.8l-1.4 2.8-2.5 5c1.5-1.7 3.3-3.1 5.2-4.4 4.6-3 10.2-4.7 16.9-4.6 10.2.2 18.1 3.8 23.5 9.6 5.9 6.3 8.8 15 8.6 24.7v1.6l-1.9.5zm-63.4 40.2l-.1-.8 2-.1 24.5-1.3 2.1-.1v2.1c0 3 .3 5.5.8 7.7.6 2.2 1.3 3.9 2.2 5.1.7.9 1.4 1.3 2 1.3h.4c.3-.1.7-.3 1-.6.5-.5.9-1.2 1.1-2.1.3-1 .3-2.2-.1-3.6-.5-2.2-1.9-4.7-4.7-7.5-2.3-2.3-4.8-4.6-7.4-6.8-3.3-2.9-6.7-5.9-10-9.5-.9-1-2-2.2-3-3.5-.8-1-1.5-1.9-2.1-2.7-4.5-6.9-6.6-14.8-6.4-22.5 0-2.5.3-5 .8-7.4l-13.6 27.1 10.5 25.2zm-430.6-27.3c1.4 0 2.5-.2 3.1-.6.7-.5 1.1-1.7 1.1-4.3v-11.7c0-1.7-1.8-1.9-4-1.9l-.2 18.5zm262-19h-10.1l-.3 61 10.4-61zm-35.2-2l-.2 85.3h21l.4-85.3v-2h15.9v-21.1H537v21.1h16v2zm-39.7 11.9l-.1 73.5h15.4l.1-27.7v-2h13.2v-15.1h-13.3v-2l.1-9.4v-1.9h18.1V827l-33.5.1zm-4.8 55.7v-38.1c0-4.7-1.9-9.2-5.2-12.5-3.2-3.2-7.6-5.2-12.5-5.2s-9.3 2-12.5 5.2c-3.2 3.2-5.2 7.6-5.2 12.5v38.1c0 4.7 1.9 9.2 5.2 12.5 3.2 3.2 7.6 5.2 12.5 5.2 4.7 0 9.2-1.9 12.5-5.2 3.2-3.1 5.2-7.6 5.2-12.5zm-22.4-37.6c0-1.3.5-2.5 1.4-3.3.8-.8 2-1.4 3.3-1.4 1.3 0 2.4.5 3.3 1.4.9.9 1.4 2.1 1.4 3.3v37.2c0 1.2-.5 2.4-1.4 3.3-.9.9-2.1 1.4-3.3 1.4-1.2 0-2.4-.5-3.3-1.4-.9-.9-1.4-2.1-1.4-3.3v-37.2zM408 900.5l.1-22h-25.9v-2l.1-84.4h-21.2l-.2 108.4H408zm4.2-108.3l-.2 82.4v2l.1 24h29.7c6.2 0 12.3-3.2 16.9-8 4.8-5 8.1-11.5 8.1-17.6l.1-56.1c0-6.5-2.9-13.2-7.5-18.2-4.5-5-10.7-8.5-17.4-8.5h-29.8zm25.6 83.2c1.2-.1 2.1-.3 2.8-.7.7-.5 1.1-1.5 1.1-3.3l.2-51.6c0-.8-.1-1.4-.3-1.7-.1-.2-.4-.3-.9-.3h-2.8l-.1 57.6zm4.9 2.5c-1.7 1.1-4 1.5-6.9 1.5h-2v-2l.1-61.6v-2h6.7c1.9 0 3.2.7 4.1 1.9.8 1.1 1.1 2.4 1.1 4l-.2 51.6c0 3.3-1 5.3-2.9 6.6zm-82.3 22.6l-12.8-46.1-.4-1.4 1.2-.8c1.5-.9 3.3-3 4.6-5.3 1.2-2 2-4.3 2-6.2l.1-24.4v-.1c0-8.4-3.6-14.4-8.4-18.3-4.8-3.9-10.9-5.7-15.7-5.7h-29.9l-.2 108.4h21.5l.1-40.8v-2h3.7l.4 1.5 10.5 41.3 23.3-.1zm-3.2-26l.1-27.1c-.2.5-.5 1-.8 1.4-1.3 2.4-3.1 4.5-4.8 5.8l5.5 19.9zm-25.7-35.6c-1.8 1.2-4.1 1.2-7.2 1.2h-2v-2l.1-22.4v-1.9h2.8c4.7 0 8.9-.1 8.9 5.8v11.7c.2 4.2-.7 6.4-2.6 7.6zm-86.2-32.7c-1.8 4.8-2.4 10.8-2.6 16.8v51.3c0 7.5 3 14.3 7.9 19.2 4.9 4.9 11.7 7.9 19.2 7.9s14.3-3 19.2-7.9c4.9-4.9 7.9-11.7 7.9-19.2V818c0-7.5-3-14.3-7.9-19.2-4.9-4.9-11.7-8-19.2-8s-14.3 3-19.2 8c-2.1 2.1-3.9 4.6-5.3 7.4zm22.5 12.3v55.1c0 .6.2 1.1.6 1.4.4.4.9.6 1.4.6.5 0 1.1-.2 1.4-.6.4-.4.6-.9.6-1.4v-55.1c0-.5-.2-1.1-.6-1.4-.4-.4-.9-.6-1.4-.6-.5 0-1 .2-1.4.5l-.1.1c-.3.4-.5.9-.5 1.4zm-3.9 0c0-1.6.7-3.1 1.7-4.2l.1-.1c1.1-1 2.5-1.6 4.1-1.6 1.6 0 3.1.7 4.2 1.7 1.1 1.1 1.7 2.5 1.7 4.2v55.2c0 1.6-.7 3.1-1.7 4.2-1.1 1.1-2.6 1.7-4.2 1.7s-3.1-.7-4.2-1.7c-1.1-1.1-1.7-2.6-1.7-4.1v-55.3zm11.9 55.2c0 1.1-.9 1.9-2 1.9l2-1.9zm-80.6 26.8l3.8-28.9 1.9-14.6 1.9 14.6 3.8 28.9h19.8l17-108.4h-21.9l-4 24.6-2.2 13.5-1.7-13.6-3.1-24.6h-21l-3.1 24.6-1.7 13.6-2.2-13.5-4-24.6h-21.8L175 900.5h20.2zm401.2-108.3L578 900.6h22.1l4.3-22.3.3-1.6h10.1l.3 1.6 3.5 22.2h21.8l-17.6-108.4-26.4.1zm46.6 0v108.4h22.2l.1-34.2v-12.3l3.8 11.7 11.3 34.8H702l.1-108.4h-21.3v50.2l-3.8-12.6-11.4-37.6H643zm63 0v108.4h21.3v-38.5l3.7 9 12.3 29.6h24.3l-25.2-61.8-.3-.8.4-.8 22.7-45h-24.1l-10.2 19-3.7 6.9v-7.8l.1-18.1-21.3-.1zm91.2 30.9l20.7-3.4c-.2-8-2.8-15.2-7.6-20.4-4.7-5-11.6-8.2-20.7-8.3-5.8-.1-10.8 1.4-14.7 4-3.8 2.5-6.7 5.9-8.6 10-2 4.1-3.1 8.8-3.2 13.6-.1 6.9 1.8 14.1 5.8 20.3.4.7 1.1 1.5 1.8 2.4.9 1.1 1.9 2.3 2.9 3.3 3.1 3.4 6.5 6.4 9.7 9.2 2.6 2.3 5.1 4.5 7.6 7 3.2 3.3 5 6.5 5.6 9.3.5 2 .5 3.9.1 5.4-.4 1.6-1.2 3-2.2 4-.8.8-1.8 1.3-2.8 1.6-.4.1-.9.2-1.3.2-1.9 0-3.6-1-5.1-2.8-1.2-1.5-2.3-3.8-3-6.6-.5-1.9-.8-4.1-.9-6.6l-20.5 1.1c.9 9.8 3.4 19.5 8.8 26.2 4.5 5.6 11 9.2 20.4 9.1 3.4 0 7.8-.6 12-2.1 3.1-1.1 6-2.8 8.2-5.2 2.3-2.4 4.5-6 6-9.9 1.4-3.5 2.3-7.2 2.2-10.6-.3-17-11.3-27.1-22.5-37.4-1.9-1.7-3.8-3.5-5.7-5.3-3.8-3.6-5.4-7.7-5.7-11.2-.1-1.5.1-3 .4-4.2.4-1.3 1-2.5 1.9-3.3 1-1 2.2-1.7 3.6-1.8h.3c2 0 3.5 1.2 4.6 3.6.8 1.8 1.4 4.5 1.7 7.8.2.4.2.7.2 1z"/></svg>